<?xml version="1.0" encoding="UTF-8" standalone="no"?>
<svg
   xmlns:dc="http://purl.org/dc/elements/1.1/"
   xmlns:cc="http://creativecommons.org/ns#"
   xmlns:rdf="http://www.w3.org/1999/02/22-rdf-syntax-ns#"
   xmlns:svg="http://www.w3.org/2000/svg"
   xmlns="http://www.w3.org/2000/svg"
   xmlns:sodipodi="http://sodipodi.sourceforge.net/DTD/sodipodi-0.dtd"
   xmlns:inkscape="http://www.inkscape.org/namespaces/inkscape"
   inkscape:version="1.0 (4035a4fb49, 2020-05-01)"
   sodipodi:docname="home-background.svg"
   id="svg223"
   version="1.1"
   fill="none"
   viewBox="0 0 878 660"
   height="660"
   width="878">
  <metadata
     id="metadata227">
    <rdf:RDF>
      <cc:Work
         rdf:about="">
        <dc:format>image/svg+xml</dc:format>
        <dc:type
           rdf:resource="http://purl.org/dc/dcmitype/StillImage" />
      </cc:Work>
    </rdf:RDF>
  </metadata>
  <sodipodi:namedview
     inkscape:current-layer="svg223"
     inkscape:window-maximized="1"
     inkscape:window-y="-8"
     inkscape:window-x="-8"
     inkscape:cy="258.67097"
     inkscape:cx="439"
     inkscape:zoom="0.83030303"
     showgrid="false"
     id="namedview225"
     inkscape:window-height="715"
     inkscape:window-width="1360"
     inkscape:pageshadow="2"
     inkscape:pageopacity="0"
     guidetolerance="10"
     gridtolerance="10"
     objecttolerance="10"
     borderopacity="1"
     bordercolor="#666666"
     pagecolor="#ffffff" />
  <path
     id="path2"
     fill="url(#paint0_linear)"
     d="M868.075 660H1.2691C-9.70578 512.198 136.012 419.063 215.18 368.462C225.465 361.889 234.626 356.033 242.175 350.869C275.263 328.232 299.799 278.801 325.894 226.228C373.97 129.372 427.337 21.8545 549.226 51.5907C656.389 77.8024 817.447 189.332 878 356.181V633.297C874.996 642.129 871.691 651.031 868.075 660Z"
     clip-rule="evenodd"
     fill-rule="evenodd"
     opacity="0.5" />
  <g
     id="g558">
    <path
       d="M477 465C351.079 465 249 475.297 249 488C249 500.703 351.079 511 477 511C602.921 511 705 500.703 705 488C705 475.297 602.921 465 477 465Z"
       fill="#F0F0F5"
       id="path4" />
    <g
       id="woman">
      <path
         id="path6"
         fill="#965450"
         d="M683.38 398.817C683.38 398.817 651.032 491.056 647.566 491.056C644.1 491.056 574.782 512.963 636.013 485.291C636.013 485.291 642.945 384.981 653.343 380.369C663.74 375.758 683.38 398.817 683.38 398.817Z" />
      <path
         id="path8"
         fill="#76413B"
         d="M659.119 465.229C669.632 437.903 683.381 398.817 683.381 398.817C683.381 398.817 663.74 375.758 653.343 380.369C646.642 383.367 641.328 426.489 638.439 456.466C645.371 459.234 652.187 462.231 659.119 465.229Z" />
      <path
         id="path10"
         fill="#051F38"
         d="M625.962 490.249C625.962 490.249 623.305 496.36 648.721 489.903L647.566 493.362C647.566 493.362 575.938 510.196 625.962 490.249Z" />
      <path
         id="path12"
         fill="#965450"
         d="M663.74 359.731C663.74 359.731 713.764 443.784 711.569 446.436C709.374 449.087 681.647 516.191 699.669 451.509C699.669 451.509 627.117 381.753 630.236 370.8C633.471 359.962 663.74 359.731 663.74 359.731Z" />
      <path
         id="path14"
         fill="#051F38"
         d="M697.128 462.347C697.128 462.347 700.132 468.342 711.454 444.706L713.418 447.819C713.302 447.819 680.261 513.539 697.128 462.347Z" />
      <path
         id="path16"
         fill="#76413B"
         d="M692.854 409.771C679.452 386.134 663.74 359.731 663.74 359.731C663.74 359.731 633.471 359.962 630.236 370.8C628.157 377.833 657.964 409.655 679.106 431.101C679.221 431.216 687.424 422.108 692.854 409.771Z" />
      <path
         id="path18"
         fill="#6633CC"
         d="M695.51 233.364C695.51 233.364 664.894 199.351 646.987 220.681C629.08 242.011 601.353 312.343 605.396 341.168C607.823 358.117 624.112 376.219 637.167 388.325L626.192 450.125C626.192 450.125 671.248 462.231 668.36 462.231C666.627 462.231 712.839 338.286 717.46 299.084C722.082 259.883 695.51 233.364 695.51 233.364Z" />
      <path
         id="path20"
         fill="#352C38"
         d="M672.059 240.974C680.608 240.858 689.966 239.705 698.168 236.362C696.551 234.402 695.511 233.364 695.511 233.364C695.511 233.364 664.896 199.351 646.989 220.681C644.216 224.025 641.212 228.406 638.208 233.71C648.26 239.244 660.968 241.204 672.059 240.974Z"
         opacity="0.2" />
      <path
         id="path22"
         fill="#352C38"
         d="M626.193 257.461C613.485 286.401 602.741 322.374 605.398 341.053C607.708 357.886 623.883 375.873 636.937 387.979C641.559 356.618 649.992 313.035 655.076 287.9C642.483 280.752 632.085 270.49 626.193 257.461Z"
         opacity="0.2" />
      <path
         id="path24"
         fill="#965450"
         d="M607.131 165.337L588.646 201.08C588.646 201.08 556.298 183.209 551.676 183.209C547.055 183.209 525.105 183.785 535.502 188.397C535.502 188.397 530.881 191.279 536.08 192.432C536.08 192.432 531.459 196.468 537.235 197.044L550.521 196.468C550.521 196.468 577.093 220.681 590.379 224.139C603.665 227.598 625.038 182.632 625.038 182.632L607.131 165.337Z" />
      <path
         id="path26"
         fill="#76413B"
         d="M610.135 190.934C613.023 191.972 616.027 193.01 619.031 194.047C622.728 187.591 625.038 182.517 625.038 182.517L607.131 165.223L596.964 184.823C601.008 187.36 605.514 189.32 610.135 190.934Z" />
      <path
         id="path28"
         fill="#34CB79"
         d="M630.236 148.043C630.236 148.043 612.907 145.161 606.552 154.385C600.198 163.608 597.31 178.597 597.31 178.597L622.149 190.704L630.236 148.043Z" />
      <path
         id="path30"
         fill="#161826"
         d="M620.648 180.673C614.294 175.715 607.015 169.489 602.279 161.994C598.813 170.065 597.195 178.482 597.195 178.482L622.034 190.588L623.536 182.748C622.612 182.172 621.572 181.48 620.648 180.673Z"
         opacity="0.1" />
      <path
         id="path32"
         fill="#23173B"
         d="M508.699 178.943C509.392 180.788 508.353 182.863 506.504 183.555L492.872 188.513C491.023 189.205 488.944 188.167 488.25 186.322L482.821 171.218C482.127 169.373 483.167 167.298 485.016 166.606L498.648 161.648C500.497 160.957 502.576 161.994 503.269 163.839L508.699 178.943Z" />
      <path
         id="path34"
         fill="#322153"
         d="M519.674 167.644L476.928 182.979C469.419 185.63 465.607 193.932 468.264 201.426L481.434 237.976C484.091 245.47 492.409 249.275 499.919 246.623L542.665 231.289C550.174 228.637 553.987 220.335 551.33 212.841L538.159 176.291C535.387 168.797 527.184 164.877 519.674 167.644ZM547.171 216.185C548.21 219.182 546.708 222.526 543.705 223.564L525.335 172.832C528.339 171.795 531.69 173.294 532.729 176.291L547.171 216.185Z" />
      <path
         id="path36"
         fill="#6633CC"
         d="M505.926 163.608C506.504 165.223 505.695 167.067 504.078 167.644L484.669 174.677C483.051 175.254 481.203 174.447 480.625 172.832L479.008 168.336C478.43 166.722 479.239 164.877 480.856 164.3L500.265 157.267C501.883 156.691 503.731 157.498 504.309 159.112L505.926 163.608Z" />
      <path
         id="path38"
         fill="#965450"
         d="M533.191 185.515C533.191 185.515 540.47 182.979 541.741 184.477C542.896 185.861 535.618 187.936 535.964 188.052C536.195 188.167 543.82 186.438 544.513 188.052C545.207 189.666 536.426 192.548 536.426 192.548C536.426 192.548 544.744 190.242 545.322 191.972C545.9 193.701 536.657 196.238 536.657 196.238L536.195 192.433L535.618 188.052L533.191 185.515Z" />
      <path
         id="path40"
         fill="#965450"
         d="M543.474 183.555C543.474 183.555 537.813 179.75 537.813 178.482C537.697 177.098 552.832 183.44 552.832 183.44L543.474 183.555Z" />
      <path
         id="path42"
         fill="#76413B"
         d="M655.075 145.161C653.92 147.236 659.581 98.9261 659.581 98.9261L633.356 116.567C633.356 116.567 635.666 147.467 632.778 147.582C631.623 147.582 627.117 149.312 622.149 151.156C623.305 156.921 625.615 158.189 627.579 163.724C642.252 163.609 658.195 163.263 667.206 149.888C662.007 148.159 656.577 142.278 655.075 145.161Z" />
      <path
         id="path44"
         fill="#34CB79"
         d="M630.236 148.043L629.081 144.008L657.964 137.666L659.119 144.584C659.119 144.584 693.778 156.114 698.399 182.056C703.02 207.998 700.71 224.717 695.511 233.364C695.511 233.364 655.075 239.129 637.746 230.482C620.416 221.834 602.509 157.267 611.752 151.502C620.994 145.737 630.236 148.043 630.236 148.043Z" />
      <path
         id="path46"
         fill="#161826"
         d="M668.015 219.874C654.151 219.067 637.168 217.453 625.615 208.921C623.42 207.307 621.456 205.577 619.608 203.617C624.807 216.415 631.276 227.253 637.746 230.482C655.076 239.129 695.511 233.364 695.511 233.364C697.822 229.559 699.555 224.14 700.363 216.992C689.966 220.105 679.106 220.566 668.015 219.874Z"
         opacity="0.1" />
      <path
         id="path48"
         fill="#965450"
         d="M666.628 199.927L696.088 197.621C696.088 197.621 688.579 249.505 679.914 267.377C671.25 285.248 631.392 355.58 646.988 316.378C646.988 316.378 626.771 346.933 644.1 315.802C644.1 315.802 625.038 340.591 641.789 314.073C641.789 314.073 622.149 336.556 642.945 304.849C642.945 304.849 627.348 312.343 644.678 299.66L661.43 255.847L666.628 199.927Z" />
      <path
         id="path50"
         fill="#76413B"
         d="M695.395 201.772C695.858 199.12 696.089 197.506 696.089 197.506L666.628 199.812L666.397 202.81C675.986 202.81 685.691 202.349 695.395 201.772Z" />
      <path
         id="path52"
         fill="#051F38"
         d="M635.782 67.9108C635.782 67.9108 650.455 59.3787 671.943 73.4451C686.153 82.7843 685.46 112.647 654.729 132.247C618.222 155.538 635.782 67.9108 635.782 67.9108Z" />
      <path
         id="path54"
         fill="#965450"
         d="M656.116 83.822C656.116 83.822 639.595 71.0238 625.5 77.25C607.709 85.3209 609.557 104.114 609.21 120.141C608.748 141.471 625.616 145.507 630.699 145.737C638.208 146.198 668.824 144.354 656.116 83.822Z" />
      <path
         id="path56"
         fill="#965450"
         d="M657.733 103.769C657.733 103.769 658.426 100.54 663.972 103.077C671.019 106.42 667.207 123.254 659.35 122.793C651.379 122.447 657.733 103.769 657.733 103.769Z" />
      <path
         id="path58"
         fill="#051F38"
         d="M657.732 103.769C657.732 103.769 658.657 115.298 655.999 115.414C653.227 115.529 650.338 94.5447 657.963 94.5447C665.588 94.7753 657.732 103.769 657.732 103.769Z" />
      <path
         id="path60"
         fill="#34CB79"
         d="M657.733 103.769C657.733 103.769 652.072 78.1724 618.453 82.4384C618.453 82.4384 623.305 72.8686 633.934 68.372C648.375 62.2612 669.979 86.8198 663.971 103.077C663.971 103.077 661.199 103.423 657.733 103.769Z" />
      <path
         id="path62"
         fill="#051F38"
         d="M671.943 80.1324C671.943 80.1324 670.094 49.5783 677.488 49.5783C684.882 49.5783 676.91 75.2899 676.91 75.2899C676.91 75.2899 683.034 38.5097 700.825 44.044C718.617 49.5783 687.886 75.2899 687.886 75.2899C687.886 75.2899 701.98 62.3765 706.948 66.7578C711.8 71.0238 686.73 79.6712 686.73 79.6712C686.73 79.6712 705.793 74.1369 708.219 83.3608C710.645 92.4693 671.365 91.2011 671.943 80.1324Z" />
      <path
         id="path64"
         fill="#051F38"
         d="M610.134 97.8889C610.134 97.8889 610.134 97.6583 610.365 97.1971C610.596 96.7359 610.827 96.1594 611.405 95.5829C611.983 95.0064 612.676 94.3146 613.6 93.8534C613.831 93.7381 614.062 93.6228 614.409 93.5075C614.64 93.3922 614.987 93.2769 615.218 93.2769C615.564 93.2769 615.795 93.1616 616.142 93.1616H617.066C617.644 93.1616 618.221 93.3922 618.799 93.6228C619.377 93.8534 619.839 94.084 620.301 94.4299C620.763 94.7758 621.11 95.1217 621.456 95.4676C621.803 95.8135 622.034 96.1594 622.149 96.5053C622.265 96.6206 622.38 96.8512 622.38 96.9665C622.496 97.0818 622.496 97.3124 622.611 97.4277C622.727 97.7736 622.843 98.0042 622.843 98.2348C622.958 98.6959 622.958 98.9265 622.958 98.9265C622.958 98.9265 622.727 98.8112 622.265 98.696C622.034 98.5807 621.803 98.4653 621.572 98.3501C621.341 98.2348 620.994 98.1195 620.647 97.8889C620.301 97.7736 620.07 97.543 619.723 97.4277C619.377 97.3124 619.03 97.1971 618.683 97.0818C618.337 96.9665 617.99 96.8512 617.644 96.7359C617.297 96.7359 616.951 96.6206 616.604 96.6206H616.142C616.026 96.6206 615.795 96.6206 615.564 96.6206C615.218 96.6206 614.871 96.7359 614.524 96.7359C614.178 96.8512 613.831 96.8512 613.485 96.9665C613.138 97.0818 612.791 97.0818 612.445 97.1971C611.752 97.4277 611.174 97.543 610.827 97.6583C610.481 97.8889 610.134 97.8889 610.134 97.8889Z" />
      <path
         id="path66"
         fill="white"
         d="M619.03 129.595C619.03 129.595 637.977 130.172 639.247 129.941C640.403 129.711 628.619 138.935 619.03 129.595Z" />
      <path
         id="path68"
         fill="#1F2733"
         d="M620.301 108.496C620.301 108.496 620.301 108.726 620.185 109.188C620.07 109.649 619.954 110.225 619.723 111.032C619.608 111.378 619.492 111.839 619.261 112.185C619.145 112.416 619.03 112.647 618.914 112.762C618.799 112.992 618.568 113.223 618.452 113.338C618.106 113.684 617.759 114.145 617.181 114.376C617.066 114.491 616.95 114.491 616.719 114.607L616.373 114.722C616.142 114.837 615.795 114.837 615.449 114.837C614.871 114.837 614.178 114.722 613.716 114.261C613.253 113.915 612.907 113.454 612.676 112.877C612.445 112.416 612.329 111.955 612.214 111.494C612.098 111.032 612.098 110.571 612.098 110.225C612.098 109.418 612.098 108.842 612.214 108.381C612.329 107.919 612.445 107.689 612.445 107.689C612.445 107.689 612.445 108.726 612.791 110.225C612.907 110.917 613.138 111.839 613.6 112.531C613.831 112.877 614.062 113.223 614.409 113.454C614.755 113.684 615.102 113.8 615.449 113.8C615.68 113.8 615.795 113.8 616.026 113.684L616.373 113.569C616.373 113.569 616.488 113.454 616.604 113.454C616.95 113.338 617.297 112.992 617.644 112.762C617.99 112.416 618.221 112.07 618.452 111.724C618.683 111.378 618.914 111.032 619.03 110.686C619.377 109.995 619.608 109.418 619.839 109.072C620.185 108.726 620.301 108.496 620.301 108.496Z" />
      <path
         id="path70"
         fill="#1F2733"
         d="M639.363 109.995C639.363 109.995 639.363 110.225 639.248 110.686C639.132 111.148 639.017 111.724 638.786 112.531C638.67 112.877 638.555 113.338 638.323 113.684C638.208 113.915 638.092 114.145 637.977 114.261C637.861 114.491 637.63 114.722 637.515 114.837C637.168 115.183 636.822 115.644 636.244 115.875C636.128 115.99 636.013 115.99 635.782 116.106L635.435 116.221C635.204 116.336 634.858 116.336 634.511 116.336C633.933 116.336 633.24 116.221 632.778 115.76C632.316 115.414 631.969 114.953 631.738 114.376C631.507 113.915 631.392 113.454 631.276 112.992C631.161 112.531 631.161 112.07 631.161 111.724C631.161 110.917 631.161 110.341 631.276 109.879C631.392 109.418 631.507 109.188 631.507 109.188C631.507 109.188 631.507 110.225 631.854 111.724C631.969 112.416 632.2 113.338 632.663 114.03C632.894 114.376 633.125 114.722 633.471 114.953C633.818 115.183 634.164 115.298 634.511 115.298C634.742 115.298 634.858 115.298 635.089 115.183L635.435 115.068C635.435 115.068 635.551 114.953 635.666 114.953C636.013 114.837 636.359 114.491 636.706 114.261C637.053 113.915 637.284 113.569 637.515 113.223C637.746 112.877 637.977 112.531 638.092 112.185C638.439 111.494 638.67 110.917 638.901 110.571C639.248 110.225 639.363 109.995 639.363 109.995Z" />
      <path
         id="path72"
         fill="#76413B"
         d="M660.39 119.565C660.736 119.103 660.967 118.757 661.198 118.296C661.429 117.835 661.545 117.374 661.66 116.913C661.66 116.682 661.66 116.451 661.66 116.221C661.66 116.106 661.545 115.99 661.545 115.99C661.545 115.875 661.429 115.76 661.314 115.76C661.198 115.644 661.198 115.644 661.083 115.529L660.852 115.298C660.736 115.183 660.621 115.183 660.505 115.183L660.159 115.068L659.927 114.953V114.722C659.581 113.454 659.465 112.301 659.35 111.032C659.234 110.456 659.234 109.764 659.35 109.188C659.35 108.496 659.465 107.919 659.696 107.228C659.812 106.882 660.043 106.536 660.39 106.305C660.736 106.075 661.198 105.844 661.545 105.959C662.007 105.959 662.238 106.075 662.585 106.19C662.931 106.305 663.278 106.421 663.509 106.651C663.74 106.882 664.087 107.112 664.202 107.343C664.433 107.574 664.549 107.919 664.664 108.15C664.895 108.726 665.011 109.418 664.895 109.995C664.78 109.418 664.664 108.842 664.318 108.265C664.202 108.035 663.971 107.804 663.74 107.573C663.509 107.343 663.278 107.228 663.047 107.112C662.816 106.997 662.585 106.882 662.238 106.882C662.007 106.882 661.66 106.766 661.429 106.766C660.967 106.766 660.736 107.112 660.621 107.573C660.274 108.611 660.39 109.764 660.39 110.917C660.505 112.07 660.621 113.338 660.852 114.491L660.621 114.146L660.967 114.376C661.083 114.491 661.198 114.491 661.314 114.607L661.66 114.837C661.776 114.953 661.891 115.068 662.007 115.183C662.123 115.299 662.238 115.414 662.238 115.644C662.354 115.76 662.354 115.99 662.354 116.106C662.469 116.451 662.354 116.682 662.354 117.028C662.238 117.604 661.891 118.066 661.545 118.527C661.198 118.873 660.736 119.334 660.39 119.565Z" />
      <path
         id="path74"
         fill="#76413B"
         d="M622.034 124.407C621.456 124.522 620.994 124.522 620.532 124.522C620.07 124.522 619.608 124.407 619.261 124.292C618.799 124.176 618.452 123.946 618.106 123.831C617.875 123.715 617.759 123.6 617.528 123.485C617.297 123.369 617.182 123.254 616.951 123.139L616.257 122.562L616.373 122.101C617.528 118.757 618.683 115.529 619.839 112.301C620.994 109.072 622.265 105.729 623.536 102.5C622.727 105.844 621.803 109.303 620.994 112.647C620.07 115.99 619.146 119.334 618.221 122.678L617.759 121.64C617.99 121.64 618.221 121.755 618.452 121.755C618.683 121.755 618.915 121.87 619.03 121.986C619.377 122.101 619.839 122.332 620.185 122.562C620.532 122.793 620.879 123.139 621.225 123.485C621.456 123.6 621.803 123.946 622.034 124.407Z" />
      <path
         id="path76"
         fill="#051F38"
         d="M628.85 96.5048C628.85 96.5048 628.966 96.1589 629.312 95.813C629.543 95.5824 629.659 95.3518 630.005 95.0059C630.352 94.7753 630.583 94.4294 631.045 94.1988C631.392 93.9682 631.854 93.6223 632.431 93.3917C632.894 93.1611 633.471 92.9305 634.049 92.6999C634.627 92.5846 635.32 92.354 636.013 92.354C636.36 92.354 636.706 92.354 637.053 92.354L638.092 92.4693C638.786 92.4693 639.479 92.8152 640.056 92.9305C640.634 93.1611 641.212 93.507 641.789 93.7376C642.367 94.0835 642.829 94.4294 643.176 94.7753C643.638 95.1212 643.984 95.5824 644.216 95.9283C644.562 96.2742 644.793 96.6201 645.024 96.966C645.255 97.3119 645.371 97.6578 645.486 97.8884C645.717 98.3496 645.833 98.6955 645.833 98.6955C645.833 98.6955 645.486 98.5802 645.024 98.3496C644.793 98.2343 644.447 98.119 644.1 97.8884C643.753 97.6578 643.407 97.5425 642.945 97.4272C642.598 97.3119 642.136 97.0813 641.674 96.8507C641.212 96.7354 640.75 96.5048 640.288 96.3895C639.825 96.2742 639.363 96.1589 638.901 96.0436C638.439 96.0436 637.977 95.813 637.399 95.813L636.706 95.6977H636.013C635.551 95.6977 634.973 95.6977 634.511 95.6977C634.049 95.6977 633.587 95.6977 633.125 95.813C632.663 95.813 632.2 95.9283 631.738 95.9283C630.93 96.0436 630.121 96.1589 629.659 96.2742C629.197 96.5048 628.85 96.5048 628.85 96.5048Z" />
      <path
         id="path78"
         fill="#091E1D"
         d="M612.907 490.825C612.907 494.976 609.557 498.435 605.398 498.55C601.239 498.55 597.773 495.207 597.657 491.056L597.311 466.613C597.311 462.462 600.661 459.003 604.82 458.888C608.979 458.888 612.445 462.231 612.56 466.382L612.907 490.825Z" />
      <path
         id="path80"
         fill="#091E1D"
         d="M506.504 492.095C506.504 496.245 503.154 499.704 498.995 499.82C494.836 499.82 491.37 496.476 491.254 492.325L490.908 467.882C490.908 463.731 494.258 460.272 498.417 460.157C502.576 460.157 506.042 463.501 506.158 467.651L506.504 492.095Z" />
      <path
         id="path82"
         fill="#34CB79"
         d="M604.358 473.415C604.473 482.87 596.848 490.595 587.375 490.71L516.209 491.517C506.735 491.633 498.995 484.023 498.879 474.568L491.254 312.92C491.139 303.466 498.764 295.741 508.237 295.625L590.841 294.588C600.314 294.472 608.055 302.082 608.17 311.536L604.358 473.415Z" />
      <path
         id="path84"
         fill="#161826"
         d="M607.708 327.793L608.055 311.767C607.939 302.313 600.199 294.703 590.725 294.818L508.121 295.856C498.648 295.971 491.023 303.696 491.139 313.151L491.947 329.177L607.708 327.793Z"
         opacity="0.1" />
      <path
         id="path86"
         fill="#34CB79"
         d="M621.803 307.732C621.803 310.383 619.723 312.459 617.066 312.574L482.127 314.188C479.47 314.188 477.391 312.113 477.275 309.461L477.044 292.397C477.044 289.745 479.123 287.67 481.781 287.554L616.719 285.94C619.377 285.94 621.456 288.016 621.572 290.667L621.803 307.732Z" />
      <path
         id="path88"
         fill="white"
         d="M550.174 355.119L565.886 345.665L562.074 355.465L550.174 355.119Z" />
      <path
         id="path90"
         fill="white"
         d="M544.283 340.246C544.283 340.246 545.554 340.246 547.518 343.243C549.482 346.241 553.872 354.312 553.872 354.312L561.843 350.738L563.692 347.625C563.692 347.625 560.226 340.707 557.453 340.246H544.283Z" />
      <path
         id="path92"
         fill="white"
         d="M539.892 342.321C539.892 342.321 542.318 339.669 544.282 341.053C546.246 342.437 549.712 348.202 549.712 348.202L544.051 358.117L533.885 352.468L539.892 342.321Z" />
      <path
         id="path94"
         fill="white"
         d="M557.338 367.456L558.146 385.673L551.33 377.718L557.338 367.456Z" />
      <path
         id="path96"
         fill="white"
         d="M573.281 369.301C573.281 369.301 572.703 370.454 569.121 370.8C565.54 371.146 556.298 371.146 556.298 371.146L555.604 379.908L557.453 383.021C557.453 383.021 565.193 383.367 566.926 381.061L573.281 369.301Z" />
      <path
         id="path98"
         fill="white"
         d="M573.396 364.458C573.396 364.458 574.667 367.802 572.472 368.955C570.392 369.993 563.576 370.223 563.576 370.223L557.453 360.538L567.273 354.197L573.396 364.458Z" />
      <path
         id="path100"
         fill="white"
         d="M543.472 367.226L527.298 358.693L537.696 356.849L543.472 367.226Z" />
      <path
         id="path102"
         fill="white"
         d="M533.885 380.024C533.885 380.024 533.192 378.986 534.694 375.758C536.195 372.529 540.817 364.574 540.817 364.574L533.654 359.616L530.072 359.731C530.072 359.731 525.913 366.303 526.953 368.84L533.885 380.024Z" />
      <path
         id="path104"
         fill="white"
         d="M537.928 382.56C537.928 382.56 534.347 381.868 534.578 379.562C534.694 377.141 537.928 371.261 537.928 371.261L549.366 370.915L549.828 382.56H537.928Z" />
    </g>
    <g
       id="man"
       transform="translate(-46.970803,25.291971)">
      <path
         id="path106"
         fill="#051f38"
         d="m 302.247,445.167 c 0,0 -2.541,40.701 -4.736,41.508 -8.434,2.882 -72.091,19.024 -11.9,-8.071 l -1.617,-29.632 z" />
      <path
         id="path108"
         fill="#041523"
         d="m 299.59,476.759 c 1.502,-12.337 2.657,-31.592 2.657,-31.592 l -18.253,3.805 1.502,26.404 c 4.505,1.268 9.704,1.383 14.094,1.383 z" />
      <path
         id="path110"
         fill="#ffffff"
         d="m 260.079,492.786 c -1.848,4.496 31.424,-4.036 37.432,-6.111 0.115,-0.115 0.346,-0.346 0.577,-0.923 -7.509,2.076 -30.268,7.264 -38.009,7.034 z" />
      <path
         id="path112"
         fill="#051f38"
         d="m 341.181,442.977 c 0,0 3.351,40.7 5.661,41.392 8.549,2.767 72.437,17.641 11.669,-8.302 l 1.039,-29.631 z" />
      <path
         id="path114"
         fill="#041523"
         d="m 344.532,474.453 c -1.733,-12.221 -3.351,-31.476 -3.351,-31.476 l 18.369,3.459 -0.924,26.403 c -4.506,1.384 -9.704,1.499 -14.094,1.614 z" />
      <path
         id="path116"
         fill="#ffffff"
         d="m 384.389,489.788 c 1.964,4.496 -31.539,-3.459 -37.547,-5.419 -0.231,0 -0.346,-0.346 -0.577,-0.923 7.509,2.076 30.384,6.803 38.124,6.342 z" />
      <path
         id="path118"
         fill="#34cb79"
         d="m 352.387,223.218 c 0,0 16.636,134.092 13.286,242.588 0,0 -19.871,5.534 -25.07,1.499 -4.506,-25.712 -3.928,-75.751 -10.629,-112.878 -6.354,-35.05 -8.895,-63.76 -8.895,-63.76 l -2.08,-2.306 c 0,0 -13.633,169.489 -16.636,182.403 -17.214,4.035 -22.644,-0.692 -22.644,-0.692 0,0 -7.856,-212.034 -3.004,-246.278 6.239,-44.735 75.672,-0.576 75.672,-0.576 z" />
      <path
         id="path120"
         fill="#161826"
         d="m 355.39,251.004 c -1.733,-17.295 -3.12,-27.671 -3.12,-27.671 0,0 -69.317,-44.16 -75.672,0.576 -0.577,4.151 -0.924,10.953 -1.27,19.601 5.198,2.882 70.126,12.106 80.062,7.494 z"
         opacity="0.1" />
      <path
         id="path122"
         fill="#161826"
         d="m 319.808,286.978 c 0.808,9.108 4.967,38.51 10.166,67.449 6.701,37.242 6.123,87.166 10.629,112.878 5.199,4.035 25.07,-1.499 25.07,-1.499 1.964,-66.758 -3.466,-143.201 -8.087,-192.087 -10.975,6.917 -24.955,10.261 -37.778,13.259 z"
         opacity="0.1" />
      <path
         id="path124"
         fill="#ffb39f"
         d="m 325.7,105.959 c 0.115,-14.0661 1.155,-32.6292 1.155,-32.6292 l -27.727,-7.6097 c 0,0 0.924,25.1351 1.733,40.4699 -12.593,4.266 -26.919,12.337 -26.919,12.337 l 52.335,13.259 18.601,-17.986 c 0,0 -9.358,-4.728 -19.178,-7.841 z" />
      <path
         id="path126"
         fill="#e09b8d"
         d="m 325.7,105.959 c 0.115,-14.0661 1.155,-32.6292 1.155,-32.6292 l -27.727,-7.6097 c 0,0 0.924,25.1351 1.733,40.4699 -12.593,4.266 -26.919,12.337 -26.919,12.337 l 52.335,13.259 24.724,-21.215 c 0,0 -15.366,-5.765 -25.301,-4.612 z" />
      <path
         id="path128"
         fill="#ffb39f"
         d="m 296.702,39.0862 c 0,0 7.278,-23.5209 26.456,-19.8313 19.178,3.6895 21.951,28.7093 24.377,45.5429 2.426,16.9488 -3.004,32.1682 -18.023,34.013 -13.055,1.6142 -35.814,-0.9224 -32.81,-59.7246 z" />
      <path
         id="path130"
         fill="#ffb39f"
         d="m 297.626,58.8022 c 0,0 -1.155,-3.113 -5.892,0.3459 -6.008,4.3814 0.115,20.5231 7.394,18.7937 7.278,-1.7295 -1.502,-19.1396 -1.502,-19.1396 z" />
      <path
         id="path132"
         fill="#051f38"
         d="m 290.925,25.5963 c 0.462,-0.1153 9.474,-0.8071 3.466,-0.2306 5.545,5.9955 4.968,7.4944 12.593,8.8779 4.043,12.4523 -3.928,19.9467 -3.928,19.9467 l 2.195,14.9888 -5.777,0.5765 c 0,0 0.116,-10.3769 -4.274,-11.2993 -4.39,-0.9224 -5.661,4.3814 -5.661,4.3814 -9.127,-11.5299 -18.37,-34.1284 1.386,-37.2414 z" />
      <path
         id="path134"
         fill="#051f38"
         d="M 343.26,17.1795 C 346.957,8.07089 340.719,0 340.719,0 c 1.039,3.34366 0.577,6.45671 -0.463,8.99328 -0.693,-2.53657 -1.964,-5.30373 -4.274,-8.070893 0,0 0.693,9.223913 -11.9,8.070893 -12.593,-1.15299 -34.659,0.57649 -35.583,20.06192 -1.04,19.4855 17.792,5.3037 17.792,5.3037 0,0 37.547,10.4922 42.977,-19.716 z" />
      <path
         id="path136"
         fill="#051f38"
         d="m 325.469,50.8476 c 0,0 -0.347,0 -0.809,-0.1153 -0.578,-0.1153 -1.271,-0.2306 -2.079,-0.3459 -0.463,-0.1153 -0.809,-0.1153 -1.271,-0.1153 -0.462,-0.1153 -0.924,-0.1153 -1.387,-0.1153 -0.462,0 -0.924,0 -1.502,0 -0.231,0 -0.462,0 -0.693,0 l -0.693,0.1153 c -0.462,0 -0.924,0.1153 -1.502,0.2306 -0.462,0.1153 -0.924,0.2306 -1.386,0.3459 -0.462,0.1153 -0.924,0.3459 -1.386,0.4612 -0.463,0.1153 -0.809,0.3459 -1.271,0.4612 -0.347,0.1153 -0.809,0.2306 -1.04,0.4612 -0.347,0.1153 -0.578,0.2306 -0.809,0.3459 -0.462,0.2306 -0.808,0.3459 -0.808,0.3459 0,0 0.115,-0.3459 0.346,-0.8071 0.116,-0.2306 0.231,-0.5765 0.462,-0.9224 0.231,-0.3459 0.462,-0.6918 0.809,-1.0377 0.347,-0.3459 0.578,-0.8071 1.04,-1.153 0.462,-0.3459 0.924,-0.6918 1.502,-1.0377 0.577,-0.2306 1.155,-0.5765 1.733,-0.8071 0.693,-0.2306 1.27,-0.3459 1.964,-0.4612 l 1.039,-0.1153 c 0.347,0 0.694,0 1.04,0.1153 0.347,0 0.693,0.1153 0.924,0.1153 0.347,0.1153 0.578,0.1153 0.925,0.2306 0.577,0.2306 1.155,0.3459 1.617,0.6918 0.462,0.2306 0.924,0.5765 1.386,0.8071 0.347,0.2306 0.694,0.5765 1.04,0.8071 0.231,0.2306 0.462,0.5765 0.693,0.6918 -0.115,0.4612 0.116,0.8071 0.116,0.8071 z" />
      <path
         id="path138"
         fill="#051f38"
         d="m 344.993,50.2701 c 0,0 -0.231,-0.1153 -0.693,-0.2306 -0.462,-0.1153 -1.04,-0.3459 -1.618,-0.5765 -0.346,-0.1153 -0.693,-0.2305 -1.039,-0.3458 -0.347,-0.1153 -0.694,-0.2307 -1.04,-0.2307 -0.347,0 -0.693,-0.1152 -1.04,-0.2305 -0.115,0 -0.347,0 -0.462,-0.1153 h -0.462 c -0.347,-0.1153 -0.693,0.1153 -1.04,0 -0.347,0.1153 -0.693,0.1153 -1.04,0.2306 -0.346,0.1153 -0.693,0.2306 -1.039,0.3459 -0.347,0.1153 -0.694,0.2305 -0.925,0.3458 -0.346,0.1153 -0.693,0.2306 -0.924,0.3459 -0.231,0.1153 -0.462,0.2306 -0.693,0.2306 -0.462,0.1153 -0.693,0.2306 -0.693,0.2306 0,0 0,-0.2306 0.231,-0.6918 0.115,-0.2306 0.115,-0.4612 0.346,-0.807 0.116,-0.3459 0.347,-0.5765 0.578,-0.9224 0.231,-0.3459 0.462,-0.6918 0.809,-1.0377 0.346,-0.3459 0.808,-0.5765 1.155,-0.9224 0.462,-0.2306 1.04,-0.4612 1.502,-0.6918 0.578,-0.1153 1.155,-0.2306 1.733,-0.2306 0.346,0 0.577,0 0.924,0 0.347,0 0.578,0.1153 0.809,0.2306 0.231,0 0.577,0.1153 0.808,0.2306 0.232,0.1153 0.463,0.2306 0.694,0.3459 0.924,0.5765 1.617,1.153 2.079,1.8448 0.462,0.6918 0.693,1.2683 0.924,1.7294 0.116,0.6918 0.116,0.9224 0.116,0.9224 z" />
      <path
         id="path140"
         fill="#dd9078"
         d="m 330.783,51.5384 c 0.693,1.4989 1.387,3.1131 2.08,4.612 0.346,0.807 0.577,1.4988 0.924,2.3059 l 0.924,2.306 0.924,2.306 c 0.347,0.8071 0.578,1.4988 0.925,2.3059 l 0.462,1.153 c 0.115,0.3459 0.346,0.8071 0.462,1.153 0.347,0.6918 0.693,1.3836 1.04,2.1907 l 0.346,0.9224 -0.693,0.3459 c -1.04,0.4612 -2.079,1.0376 -3.235,1.4988 -1.039,0.4612 -2.195,0.9224 -3.35,1.2683 0.924,-0.8071 1.848,-1.4989 2.773,-2.1906 0.924,-0.6918 1.964,-1.3836 2.888,-2.0754 l -0.347,1.2683 c -0.462,-0.6918 -0.924,-1.4989 -1.386,-2.1907 -0.462,-0.6918 -0.809,-1.4989 -1.155,-2.306 l -0.578,-1.153 -0.462,-1.1529 c -0.231,-0.8071 -0.578,-1.6142 -0.809,-2.4213 l -0.693,-2.4213 c -0.231,-0.8071 -0.347,-1.6142 -0.578,-2.4213 -0.115,-1.8447 -0.346,-3.5742 -0.462,-5.3037 z" />
      <path
         id="path142"
         fill="#dd9078"
         d="m 297.279,74.5981 c -0.462,-0.2306 -0.924,-0.5765 -1.27,-1.0377 -0.347,-0.3459 -0.809,-0.8071 -1.04,-1.3835 -0.116,-0.2306 -0.231,-0.5765 -0.231,-0.9224 0,-0.1153 0,-0.3459 0,-0.4612 0,-0.1153 0.115,-0.3459 0.115,-0.4612 0.116,-0.3459 0.347,-0.5765 0.578,-0.8071 0.115,-0.1153 0.231,-0.2306 0.346,-0.3459 l 0.347,-0.2306 -0.231,0.3459 c 0,-1.2683 0,-2.5366 -0.116,-3.6896 -0.115,-1.2682 -0.231,-2.5365 -0.693,-3.5742 -0.115,-0.2306 -0.231,-0.4612 -0.462,-0.5765 -0.115,-0.1153 -0.346,-0.2306 -0.577,-0.2306 -0.116,0 -0.232,0 -0.347,0.1153 -0.116,0 -0.347,0.1153 -0.462,0.1153 -0.231,0.1153 -0.462,0.2306 -0.693,0.4612 -0.231,0.2306 -0.463,0.3459 -0.578,0.5765 -0.116,0.2306 -0.347,0.4612 -0.462,0.8071 -0.231,0.5765 -0.347,1.153 -0.347,1.8447 -0.231,-0.5765 -0.231,-1.2682 -0.115,-1.96 0,-0.3459 0.115,-0.6918 0.346,-0.9224 0.116,-0.3459 0.347,-0.5765 0.578,-0.8071 l 0.347,-0.3459 0.462,-0.3459 c 0.115,-0.1153 0.346,-0.1153 0.462,-0.2306 0.115,-0.1153 0.346,-0.1153 0.577,-0.2306 0.463,-0.1153 0.925,0 1.271,0.3459 0.347,0.2306 0.578,0.5765 0.693,0.9224 0.347,0.6918 0.463,1.2683 0.694,1.9601 0.115,0.6918 0.231,1.2682 0.231,1.96 0.115,1.2683 0.115,2.5366 0,3.9202 v 0.2306 l -0.231,0.1153 c -0.231,0.1153 -0.462,0.2306 -0.578,0.4612 -0.116,0.1153 -0.347,0.3459 -0.462,0.4612 -0.116,0.1153 -0.116,0.2306 -0.116,0.3459 0,0.1153 -0.115,0.2306 -0.115,0.3459 0,0.2306 0,0.4612 0,0.6917 0.115,0.4612 0.346,0.9224 0.693,1.3836 0.693,0.4612 1.04,0.8071 1.386,1.153 z" />
      <path
         id="path144"
         fill="#1f2733"
         d="m 315.417,61.8 c 0,0 0.116,0.2306 0.232,0.6917 0.115,0.2306 0.115,0.4612 0.231,0.6918 0.115,0.2306 0.231,0.5765 0.462,0.9224 0.115,0.3459 0.462,0.5765 0.577,0.9224 0.116,0.1153 0.231,0.2306 0.462,0.4612 0.116,0.1153 0.232,0.2306 0.463,0.3459 0.346,0.2306 0.693,0.3459 1.039,0.4612 0.231,0 0.347,0.1153 0.578,0.1153 0.231,0 0.347,0 0.578,-0.1153 l 0.577,-0.2306 0.578,-0.3459 c 0.347,-0.2306 0.578,-0.5765 0.809,-0.9224 0.231,-0.3459 0.346,-0.6918 0.577,-1.0377 0.116,-0.3459 0.231,-0.6918 0.231,-1.153 0,-0.3459 0,-0.6918 0.116,-0.9223 0,-0.3459 0,-0.5765 0,-0.8071 0,-0.4612 0,-0.6918 0,-0.6918 0,0 0.115,0.2306 0.231,0.6918 0.116,0.2306 0.116,0.4612 0.231,0.8071 0,0.3458 0.116,0.6917 0.116,1.0376 0,0.3459 0,0.8071 -0.116,1.2683 -0.115,0.4612 -0.231,0.9224 -0.462,1.3836 -0.231,0.4612 -0.578,0.9224 -1.04,1.2683 l -0.693,0.4612 c -0.231,0.1153 -0.578,0.2306 -0.809,0.3459 -0.231,0 -0.577,0.1153 -0.924,0.1153 -0.231,0 -0.578,-0.1153 -0.809,-0.1153 -0.577,-0.1153 -1.039,-0.4612 -1.502,-0.8071 -0.462,-0.3459 -0.693,-0.8071 -0.924,-1.153 -0.231,-0.4612 -0.462,-0.8071 -0.577,-1.153 -0.116,-0.3459 -0.232,-0.6918 -0.232,-1.0377 0,-0.3459 0,-0.5765 0,-0.8071 0,-0.4611 0,-0.6917 0,-0.6917 z" />
      <path
         id="path146"
         fill="#1f2733"
         d="m 336.329,58.341 c 0,0 0.115,0.2306 0.231,0.6918 0.115,0.2306 0.115,0.4612 0.231,0.6918 0.115,0.2306 0.231,0.5765 0.462,0.9224 0.115,0.3459 0.462,0.5765 0.578,0.9224 0.115,0.1153 0.231,0.2306 0.462,0.4612 0.115,0.1153 0.231,0.2306 0.462,0.3459 0.346,0.2306 0.693,0.3459 1.04,0.4612 0.231,0 0.346,0.1153 0.577,0.1153 0.231,0 0.347,0 0.578,-0.1153 l 0.577,-0.2306 0.578,-0.3459 c 0.347,-0.2306 0.578,-0.5765 0.809,-0.9224 0.231,-0.3459 0.346,-0.6918 0.577,-1.0377 0.116,-0.3459 0.232,-0.6918 0.232,-1.153 0,-0.3459 0,-0.6918 0.115,-0.9224 0,-0.3459 0,-0.5765 0,-0.8071 0,-0.4612 0,-0.6917 0,-0.6917 0,0 0.116,0.2305 0.231,0.6917 0.116,0.2306 0.116,0.4612 0.231,0.8071 0,0.3459 0.116,0.6918 0.116,1.0377 0,0.3459 0,0.8071 -0.116,1.2683 -0.115,0.4612 -0.231,0.9224 -0.462,1.3836 -0.231,0.4612 -0.578,0.9224 -1.04,1.2683 l -0.693,0.4612 c -0.231,0.1153 -0.578,0.2306 -0.809,0.3458 -0.231,0 -0.577,0.1154 -0.924,0.1154 -0.231,0 -0.577,-0.1154 -0.809,-0.1154 -0.577,-0.1152 -1.039,-0.4611 -1.501,-0.807 -0.463,-0.3459 -0.694,-0.8071 -0.925,-1.153 -0.231,-0.4612 -0.462,-0.8071 -0.577,-1.153 -0.116,-0.3459 -0.231,-0.6918 -0.231,-1.0377 0,-0.3459 0,-0.5765 0,-0.8071 0,-0.4612 0,-0.6918 0,-0.6918 z" />
      <path
         id="path148"
         fill="#dd9078"
         d="m 317.237,78.1034 c 0,0 -0.116,0 0,0.1153 0.115,0.1153 0.346,0.2306 0.578,0.3459 0.462,0.3459 1.27,0.6918 2.195,1.153 0.924,0.4612 2.079,0.9224 3.234,1.2682 0.578,0.2306 1.271,0.3459 1.849,0.4612 0.578,0.1153 1.271,0.2306 1.964,0.3459 1.271,0.1153 2.542,0.2306 3.812,0.1153 1.271,-0.1153 2.311,-0.3459 3.351,-0.6918 0.924,-0.3459 1.733,-0.5764 2.31,-0.807 0.578,-0.2306 0.925,-0.3459 0.925,-0.3459 0,0 -0.231,0.3459 -0.694,0.6917 -0.462,0.4612 -1.155,1.0377 -2.079,1.6142 -0.924,0.5765 -2.195,1.153 -3.582,1.3836 -1.386,0.3459 -2.888,0.3459 -4.39,0.2306 -0.693,-0.1153 -1.502,-0.2306 -2.195,-0.4612 -0.693,-0.2306 -1.386,-0.4612 -1.964,-0.8071 -1.271,-0.5765 -2.31,-1.2683 -3.119,-1.9601 -0.809,-0.6917 -1.502,-1.3835 -1.849,-1.96 -0.231,-0.2306 -0.346,-0.4612 -0.346,-0.6918 -0.116,0 -0.116,0.1153 0,0 z" />
      <path
         id="path150"
         fill="#6633cc"
         d="m 335.289,105.613 c 0,0 29.576,-3.113 33.388,19.486 3.813,22.714 3.466,28.824 3.466,28.824 l -28.882,-4.266 z" />
      <path
         id="path152"
         fill="#6633cc"
         d="m 360.242,123.83 c -1.733,-14.413 -16.405,-17.526 -24.954,-18.218 -3.813,5.304 -9.127,9.109 -16.405,9.34 -8.319,0.23 -15.944,-2.652 -19.987,-8.994 -12.939,1.499 -25.763,5.189 -28.652,13.951 -6.123,18.448 -0.808,119.911 -0.808,119.911 0,0 51.757,8.878 94.272,0.807 -0.115,0.115 -1.155,-97.543 -3.466,-116.797 z" />
      <path
         id="path154"
         fill="#352c38"
         d="m 267.242,169.258 c 0.231,33.437 2.195,70.678 2.195,70.678 0,0 51.757,8.878 94.272,0.807 0,0 -0.809,-74.137 -2.542,-105.959 -31.308,11.645 -62.617,23.175 -93.925,34.474 z"
         opacity="0.2" />
      <path
         id="path156"
         fill="#e1edff"
         d="m 299.127,196.007 c 0,0 -1.155,-3.343 4.159,-5.534 5.315,-2.191 60.076,-16.488 63.542,-16.026 3.465,0.461 45.865,5.534 46.558,7.84 0.693,2.306 -50.718,18.909 -50.718,18.909 z" />
      <path
         id="path158"
         fill="#c0d5ff"
         d="m 365.557,205.577 c 0,0 -59.96,-0.23 -64.581,-5.649 -4.621,-5.419 -4.737,-9.34 21.489,-4.728 26.225,4.612 41.359,3.92 41.359,3.92 0,0 48.061,-22.367 49.678,-16.948 1.502,5.534 6.585,4.15 -47.945,23.405 z" />
      <path
         id="path160"
         fill="#b1c5e8"
         d="m 413.387,182.287 c -1.502,-5.419 -49.678,16.949 -49.678,16.949 0,0 -0.116,0 -0.462,0 1.039,2.075 1.848,4.035 2.772,6.226 54.068,-19.14 48.985,-17.756 47.368,-23.175 z" />
      <path
         id="path162"
         fill="#e1edff"
         d="m 297.394,183.67 c 0,0 -1.156,-3.343 4.159,-5.534 5.314,-2.191 60.075,-16.488 63.541,-16.026 3.466,0.461 45.865,5.534 46.559,7.84 0.693,2.306 -50.718,18.909 -50.718,18.909 z" />
      <path
         id="path164"
         fill="#c0d5ff"
         d="m 363.824,193.356 c 0,0 -59.96,-0.231 -64.581,-5.65 -4.621,-5.419 -4.737,-9.339 21.488,-4.727 26.226,4.612 41.36,3.92 41.36,3.92 0,0 48.06,-22.368 49.678,-16.949 1.386,5.419 6.585,4.035 -47.945,23.406 z" />
      <path
         id="path166"
         fill="#b1c5e8"
         d="m 411.654,170.065 c -1.502,-5.419 -49.678,16.949 -49.678,16.949 0,0 -0.116,0 -0.462,0 1.039,2.076 1.848,4.036 2.772,6.226 53.953,-19.255 48.869,-17.871 47.368,-23.175 z" />
      <path
         id="path168"
         fill="#e1edff"
         d="m 297.163,173.639 c 0,0 -1.04,-2.882 4.043,-4.842 5.084,-1.96 58.112,-14.528 61.462,-14.067 3.351,0.462 44.364,4.958 45.057,6.918 0.693,1.96 -49.1,16.719 -49.1,16.719 z" />
      <path
         id="path170"
         fill="#c0d5ff"
         d="m 361.398,182.172 c 0,0 -57.996,-0.231 -62.501,-4.958 -4.506,-4.728 -4.506,-8.187 20.795,-4.151 25.301,4.035 39.973,3.459 39.973,3.459 0,0 46.559,-19.716 48.061,-14.874 1.502,4.728 6.469,3.459 -46.328,20.524 z" />
      <path
         id="path172"
         fill="#b1c5e8"
         d="m 407.726,161.648 c -1.502,-4.727 -48.061,14.874 -48.061,14.874 0,0 -0.115,0 -0.462,0 0.924,1.729 1.849,3.574 2.657,5.419 52.335,-16.834 47.368,-15.565 45.866,-20.293 z" />
      <path
         id="path174"
         fill="#ffffff"
         d="m 298.78,160.15 c 0,0 -0.924,-2.883 4.275,-4.728 5.199,-1.729 58.574,-12.337 61.924,-11.76 3.35,0.461 44.132,6.572 44.71,8.532 0.578,1.96 -49.678,14.758 -49.678,14.758 z" />
      <path
         id="path176"
         fill="#c0d5ff"
         d="m 362.669,171.102 c 0,0 -57.996,-2.421 -62.27,-7.264 -4.275,-4.958 -4.275,-8.301 20.91,-3.344 25.186,4.958 39.858,4.958 39.858,4.958 0,0 47.252,-17.871 48.523,-13.144 1.386,4.727 6.354,3.69 -47.021,18.794 z" />
      <path
         id="path178"
         fill="#b1c5e8"
         d="m 409.69,152.309 c -1.271,-4.842 -48.523,13.144 -48.523,13.144 0,0 -0.115,0 -0.462,0 0.924,1.845 1.733,3.69 2.426,5.535 52.797,-14.989 47.83,-13.952 46.559,-18.679 z" />
      <path
         id="path180"
         fill="#ffb39f"
         d="m 268.628,162.34 28.536,-6.918 c 0,0 6.123,41.508 7.74,43.814 1.618,2.306 49.332,4.612 49.332,4.612 l 13.863,0.807 c 0,0 -58.574,24.558 -75.441,14.643 -17.098,-10.147 -24.03,-56.958 -24.03,-56.958 z" />
      <path
         id="path182"
         fill="#e09b8d"
         d="m 271.401,167.298 c 8.78,-2.652 17.329,-5.88 26.34,-7.84 -0.346,-2.537 -0.577,-4.036 -0.577,-4.036 l -28.536,6.918 c 0,0 0.347,2.076 0.924,5.535 0.693,-0.231 1.271,-0.462 1.849,-0.577 z" />
      <path
         id="path184"
         fill="#ffb39f"
         d="m 362.785,208.46 c 0,0 21.719,-5.765 21.719,-10.147 0,-4.381 -7.856,-20.177 -2.31,0.923 0,0 -11.553,-28.594 -2.311,1.383 0,0 -9.011,-23.29 -2.888,0.577 0,0 -9.243,-16.142 -2.542,1.153 l -8.318,3.113 -19.987,-0.231 -10.628,10.377 z" />
      <path
         id="path186"
         fill="#ffb39f"
         d="m 413.618,187.36 c 0,0 -11.553,-28.594 -2.311,1.384 0,0 -9.011,-23.291 -2.888,0.576 0,0 -9.243,-16.142 -3.351,1.268 l -6.354,2.998 c 2.311,0.231 5.315,0.115 7.741,-0.692 7.394,-1.499 9.473,-4.035 9.473,-6.341 0,-4.381 -7.856,-20.177 -2.31,0.807 z" />
      <path
         id="path188"
         fill="#091e1d"
         d="m 443.078,490.825 c 0,4.151 -3.35,7.61 -7.509,7.725 -4.16,0 -7.625,-3.343 -7.741,-7.494 l -0.347,-24.443 c 0,-4.151 3.351,-7.61 7.51,-7.725 4.159,0 7.625,3.343 7.74,7.494 z" />
      <path
         id="path190"
         fill="#091e1d"
         d="m 336.675,492.095 c 0,4.15 -3.35,7.609 -7.509,7.725 -4.159,0 -7.625,-3.344 -7.741,-7.495 l -0.346,-24.443 c 0,-4.151 3.35,-7.61 7.509,-7.725 4.159,0 7.625,3.344 7.741,7.494 z" />
      <path
         id="path192"
         fill="#322153"
         d="m 434.529,473.415 c 0.116,9.455 -7.509,17.18 -16.983,17.295 l -71.166,0.807 c -9.473,0.116 -17.214,-7.494 -17.329,-16.949 L 321.426,312.92 c -0.116,-9.454 7.509,-17.179 16.982,-17.295 l 82.604,-1.037 c 9.474,-0.116 17.214,7.494 17.33,16.948 z" />
      <path
         id="path194"
         fill="#1c0c3b"
         d="m 437.879,327.793 0.347,-16.026 c -0.115,-9.454 -7.856,-17.064 -17.329,-16.949 l -82.604,1.038 c -9.474,0.115 -17.099,7.84 -16.983,17.295 l 0.809,16.026 z" />
      <path
         id="path196"
         fill="#322153"
         d="m 451.974,307.732 c 0,2.651 -2.079,4.727 -4.737,4.842 l -134.938,1.614 c -2.658,0 -4.737,-2.075 -4.853,-4.727 l -0.231,-17.064 c 0,-2.652 2.08,-4.727 4.737,-4.843 l 134.939,-1.614 c 2.657,0 4.737,2.076 4.852,4.727 z" />
      <path
         id="path198"
         fill="#ffffff"
         d="m 380.346,355.119 15.712,-9.454 -3.813,9.8 z" />
      <path
         id="path200"
         fill="#ffffff"
         d="m 374.454,340.246 c 0,0 1.27,0 3.234,2.997 1.964,2.998 6.355,11.069 6.355,11.069 l 7.971,-3.574 1.849,-3.113 c 0,0 -3.466,-6.918 -6.239,-7.379 z" />
      <path
         id="path202"
         fill="#ffffff"
         d="m 370.064,342.321 c 0,0 2.426,-2.652 4.39,-1.268 1.964,1.384 5.43,7.149 5.43,7.149 l -5.661,9.915 -10.167,-5.649 z" />
      <path
         id="path204"
         fill="#ffffff"
         d="m 387.509,367.456 0.808,18.217 -6.816,-7.955 z" />
      <path
         id="path206"
         fill="#ffffff"
         d="m 403.451,369.301 c 0,0 -0.577,1.153 -4.159,1.499 -3.581,0.346 -12.823,0.346 -12.823,0.346 l -0.694,8.762 1.849,3.114 c 0,0 7.74,0.345 9.473,-1.961 z" />
      <path
         id="path208"
         fill="#ffffff"
         d="m 403.567,364.458 c 0,0 1.271,3.344 -0.924,4.497 -2.08,1.038 -8.896,1.268 -8.896,1.268 l -6.123,-9.685 9.82,-6.341 z" />
      <path
         id="path210"
         fill="#ffffff"
         d="m 373.76,367.226 -16.175,-8.532 10.283,-1.845 z" />
      <path
         id="path212"
         fill="#ffffff"
         d="m 364.056,380.024 c 0,0 -0.693,-1.038 0.809,-4.266 1.502,-3.229 6.123,-11.184 6.123,-11.184 l -7.163,-4.958 -3.581,0.115 c 0,0 -4.159,6.572 -3.12,9.109 z" />
      <path
         id="path214"
         fill="#ffffff"
         d="m 368.215,382.56 c 0,0 -3.581,-0.692 -3.35,-2.998 0.115,-2.421 3.35,-8.301 3.35,-8.301 l 11.438,-0.346 0.462,11.645 z" />
    </g>
  </g>
  <defs
     id="defs221">
    <linearGradient
       gradientUnits="userSpaceOnUse"
       y2="652"
       x2="868"
       y1="153.5"
       x1="369.5"
       id="paint0_linear">
      <stop
         id="stop216"
         stop-color="white" />
      <stop
         id="stop218"
         stop-opacity="0"
         stop-color="white"
         offset="1" />
    </linearGradient>
  </defs>
</svg>
